<mxfile host="app.diagrams.net" modified="2022-02-25T13:19:54.618Z" agent="5.0 (X11)" etag="TXQU0TGvCSpMCDRRqkSd" version="16.6.4" type="github">
  <diagram id="YMFxnF5KjNwl7pwPoNxs" name="Linux Terminal">
    <mxGraphModel dx="2847" dy="1073" grid="1" gridSize="10" guides="1" tooltips="1" connect="1" arrows="1" fold="1" page="1" pageScale="1" pageWidth="850" pageHeight="1100" math="0" shadow="0">
      <root>
        <mxCell id="0" />
        <mxCell id="1" parent="0" />
        <mxCell id="TagpkAwl5NkRn56NV983-6" style="edgeStyle=orthogonalEdgeStyle;rounded=0;orthogonalLoop=1;jettySize=auto;html=1;fontFamily=Comfortaa;fontSize=30;" parent="1" source="TagpkAwl5NkRn56NV983-4" target="TagpkAwl5NkRn56NV983-5" edge="1">
          <mxGeometry relative="1" as="geometry" />
        </mxCell>
        <mxCell id="TagpkAwl5NkRn56NV983-8" style="edgeStyle=orthogonalEdgeStyle;rounded=0;orthogonalLoop=1;jettySize=auto;html=1;entryX=0.5;entryY=0;entryDx=0;entryDy=0;fontFamily=Comfortaa;fontSize=30;" parent="1" source="TagpkAwl5NkRn56NV983-4" target="TagpkAwl5NkRn56NV983-7" edge="1">
          <mxGeometry relative="1" as="geometry" />
        </mxCell>
        <mxCell id="TagpkAwl5NkRn56NV983-4" value="ncal" style="rounded=0;whiteSpace=wrap;html=1;fontFamily=Comfortaa;fontSize=30;" parent="1" vertex="1">
          <mxGeometry x="280" y="210" width="120" height="60" as="geometry" />
        </mxCell>
        <mxCell id="TagpkAwl5NkRn56NV983-5" value="ncal -2022" style="rounded=0;whiteSpace=wrap;html=1;fontFamily=Comfortaa;fontSize=30;" parent="1" vertex="1">
          <mxGeometry x="220" y="450" width="200" height="60" as="geometry" />
        </mxCell>
        <mxCell id="TagpkAwl5NkRn56NV983-7" value="ncal -y" style="rounded=0;whiteSpace=wrap;html=1;fontFamily=Comfortaa;fontSize=30;" parent="1" vertex="1">
          <mxGeometry x="400" y="370" width="160" height="60" as="geometry" />
        </mxCell>
        <mxCell id="TagpkAwl5NkRn56NV983-9" value="date" style="rounded=0;whiteSpace=wrap;html=1;fontFamily=Comfortaa;fontSize=30;" parent="1" vertex="1">
          <mxGeometry x="650" y="200" width="120" height="60" as="geometry" />
        </mxCell>
        <mxCell id="TagpkAwl5NkRn56NV983-12" style="edgeStyle=orthogonalEdgeStyle;rounded=0;orthogonalLoop=1;jettySize=auto;html=1;entryX=0.5;entryY=0;entryDx=0;entryDy=0;fontFamily=Comfortaa;fontSize=30;" parent="1" source="TagpkAwl5NkRn56NV983-10" target="TagpkAwl5NkRn56NV983-11" edge="1">
          <mxGeometry relative="1" as="geometry" />
        </mxCell>
        <mxCell id="TagpkAwl5NkRn56NV983-10" value="clear" style="rounded=0;whiteSpace=wrap;html=1;fontFamily=Comfortaa;fontSize=30;" parent="1" vertex="1">
          <mxGeometry x="910" y="200" width="120" height="60" as="geometry" />
        </mxCell>
        <mxCell id="TagpkAwl5NkRn56NV983-11" value="Ctrl + L" style="rounded=0;whiteSpace=wrap;html=1;fontFamily=Comfortaa;fontSize=30;" parent="1" vertex="1">
          <mxGeometry x="885" y="400" width="170" height="60" as="geometry" />
        </mxCell>
        <mxCell id="TagpkAwl5NkRn56NV983-13" value="Basic" style="text;html=1;strokeColor=none;fillColor=none;align=center;verticalAlign=middle;whiteSpace=wrap;rounded=0;fontFamily=Comfortaa;fontSize=60;fontStyle=1" parent="1" vertex="1">
          <mxGeometry x="600" y="20" width="220" height="100" as="geometry" />
        </mxCell>
        <mxCell id="TagpkAwl5NkRn56NV983-20" style="edgeStyle=orthogonalEdgeStyle;rounded=0;orthogonalLoop=1;jettySize=auto;html=1;fontFamily=Comfortaa;fontSize=60;" parent="1" source="TagpkAwl5NkRn56NV983-15" target="TagpkAwl5NkRn56NV983-17" edge="1">
          <mxGeometry relative="1" as="geometry" />
        </mxCell>
        <mxCell id="TagpkAwl5NkRn56NV983-21" style="edgeStyle=orthogonalEdgeStyle;rounded=0;orthogonalLoop=1;jettySize=auto;html=1;fontFamily=Comfortaa;fontSize=60;" parent="1" source="TagpkAwl5NkRn56NV983-15" target="TagpkAwl5NkRn56NV983-18" edge="1">
          <mxGeometry relative="1" as="geometry" />
        </mxCell>
        <mxCell id="TagpkAwl5NkRn56NV983-22" style="edgeStyle=orthogonalEdgeStyle;rounded=0;orthogonalLoop=1;jettySize=auto;html=1;fontFamily=Comfortaa;fontSize=60;" parent="1" source="TagpkAwl5NkRn56NV983-15" target="TagpkAwl5NkRn56NV983-19" edge="1">
          <mxGeometry relative="1" as="geometry" />
        </mxCell>
        <mxCell id="TagpkAwl5NkRn56NV983-15" value="View Previous Command" style="rounded=0;whiteSpace=wrap;html=1;fontFamily=Comfortaa;fontSize=30;fontStyle=1" parent="1" vertex="1">
          <mxGeometry x="1155" y="200" width="445" height="60" as="geometry" />
        </mxCell>
        <mxCell id="TagpkAwl5NkRn56NV983-17" value="Up Arrow Key" style="rounded=0;whiteSpace=wrap;html=1;fontFamily=Comfortaa;fontSize=30;" parent="1" vertex="1">
          <mxGeometry x="1160" y="390" width="240" height="60" as="geometry" />
        </mxCell>
        <mxCell id="gG5mCtlvFSFJff17jwIa-3" style="edgeStyle=orthogonalEdgeStyle;rounded=0;orthogonalLoop=1;jettySize=auto;html=1;" edge="1" parent="1" source="TagpkAwl5NkRn56NV983-18" target="gG5mCtlvFSFJff17jwIa-2">
          <mxGeometry relative="1" as="geometry" />
        </mxCell>
        <mxCell id="gG5mCtlvFSFJff17jwIa-5" style="edgeStyle=orthogonalEdgeStyle;rounded=0;orthogonalLoop=1;jettySize=auto;html=1;" edge="1" parent="1" source="TagpkAwl5NkRn56NV983-18" target="gG5mCtlvFSFJff17jwIa-4">
          <mxGeometry relative="1" as="geometry" />
        </mxCell>
        <mxCell id="TagpkAwl5NkRn56NV983-18" value="history" style="rounded=0;whiteSpace=wrap;html=1;fontFamily=Comfortaa;fontSize=30;" parent="1" vertex="1">
          <mxGeometry x="1330" y="500" width="270" height="60" as="geometry" />
        </mxCell>
        <mxCell id="TagpkAwl5NkRn56NV983-19" value="Ctrl + P" style="rounded=0;whiteSpace=wrap;html=1;fontFamily=Comfortaa;fontSize=30;" parent="1" vertex="1">
          <mxGeometry x="1530" y="370" width="270" height="60" as="geometry" />
        </mxCell>
        <mxCell id="gG5mCtlvFSFJff17jwIa-2" value="!!: Run Previous Command" style="rounded=0;whiteSpace=wrap;html=1;fontFamily=Comfortaa;fontSize=30;" vertex="1" parent="1">
          <mxGeometry x="1620" y="660" width="450" height="60" as="geometry" />
        </mxCell>
        <mxCell id="gG5mCtlvFSFJff17jwIa-4" value="!&amp;lt;number&amp;gt;: Run whatever from history command" style="rounded=0;whiteSpace=wrap;html=1;fontFamily=Comfortaa;fontSize=30;" vertex="1" parent="1">
          <mxGeometry x="1240" y="780" width="530" height="60" as="geometry" />
        </mxCell>
        <mxCell id="gG5mCtlvFSFJff17jwIa-9" style="edgeStyle=orthogonalEdgeStyle;rounded=0;orthogonalLoop=1;jettySize=auto;html=1;" edge="1" parent="1" source="gG5mCtlvFSFJff17jwIa-6" target="gG5mCtlvFSFJff17jwIa-7">
          <mxGeometry relative="1" as="geometry" />
        </mxCell>
        <mxCell id="gG5mCtlvFSFJff17jwIa-10" style="edgeStyle=orthogonalEdgeStyle;rounded=0;orthogonalLoop=1;jettySize=auto;html=1;" edge="1" parent="1" source="gG5mCtlvFSFJff17jwIa-6" target="gG5mCtlvFSFJff17jwIa-8">
          <mxGeometry relative="1" as="geometry" />
        </mxCell>
        <mxCell id="gG5mCtlvFSFJff17jwIa-6" value="Close Terminal" style="rounded=0;whiteSpace=wrap;html=1;fontFamily=Comfortaa;fontSize=30;" vertex="1" parent="1">
          <mxGeometry x="2140" y="190" width="310" height="60" as="geometry" />
        </mxCell>
        <mxCell id="gG5mCtlvFSFJff17jwIa-7" value="exit" style="rounded=0;whiteSpace=wrap;html=1;fontFamily=Comfortaa;fontSize=30;" vertex="1" parent="1">
          <mxGeometry x="2100" y="320" width="110" height="60" as="geometry" />
        </mxCell>
        <mxCell id="gG5mCtlvFSFJff17jwIa-8" value="Ctrl + D" style="rounded=0;whiteSpace=wrap;html=1;fontFamily=Comfortaa;fontSize=30;" vertex="1" parent="1">
          <mxGeometry x="2330" y="320" width="200" height="60" as="geometry" />
        </mxCell>
        <mxCell id="gG5mCtlvFSFJff17jwIa-14" style="edgeStyle=orthogonalEdgeStyle;rounded=0;orthogonalLoop=1;jettySize=auto;html=1;" edge="1" parent="1" source="gG5mCtlvFSFJff17jwIa-11" target="gG5mCtlvFSFJff17jwIa-12">
          <mxGeometry relative="1" as="geometry" />
        </mxCell>
        <mxCell id="gG5mCtlvFSFJff17jwIa-15" style="edgeStyle=orthogonalEdgeStyle;rounded=0;orthogonalLoop=1;jettySize=auto;html=1;" edge="1" parent="1" source="gG5mCtlvFSFJff17jwIa-11" target="gG5mCtlvFSFJff17jwIa-13">
          <mxGeometry relative="1" as="geometry" />
        </mxCell>
        <mxCell id="gG5mCtlvFSFJff17jwIa-11" value="Open Terminal" style="rounded=0;whiteSpace=wrap;html=1;fontFamily=Comfortaa;fontSize=30;" vertex="1" parent="1">
          <mxGeometry x="-350" y="200" width="270" height="60" as="geometry" />
        </mxCell>
        <mxCell id="gG5mCtlvFSFJff17jwIa-12" value="Graphical Method" style="rounded=0;whiteSpace=wrap;html=1;fontFamily=Comfortaa;fontSize=30;" vertex="1" parent="1">
          <mxGeometry x="-460" y="320" width="200" height="60" as="geometry" />
        </mxCell>
        <mxCell id="gG5mCtlvFSFJff17jwIa-13" value="Window + T" style="rounded=0;whiteSpace=wrap;html=1;fontFamily=Comfortaa;fontSize=30;" vertex="1" parent="1">
          <mxGeometry x="-170" y="330" width="200" height="60" as="geometry" />
        </mxCell>
      </root>
    </mxGraphModel>
  </diagram>
</mxfile>
